ply
format ascii 1.0
comment Created by Blender 2.82 (sub 7) - www.blender.org, source file: 'Lantern.blend'
element vertex 108
property float x
property float y
property float z
property float nx
property float ny
property float nz
property float s
property float t
property float red
property float green
property float blue
property float alpha
element face 36
property list uchar uint vertex_indices
end_header
0.000000 0.000000 0.000000 0.000000 -1.000000 0.000000 0.750000 0.250000 0.3 0.3 0.3 1.0
0.000000 0.000000 0.100000 0.000000 -1.000000 0.000000 0.750000 0.490000 0.3 0.3 0.3 1.0
-0.100000 0.000000 -0.000000 0.000000 -1.000000 0.000000 0.990000 0.250000 0.3 0.3 0.3 1.0
0.000000 2.000000 0.000000 -0.000000 1.000000 0.000000 0.250000 0.250000 0.3 0.3 0.3 1.0
-0.100000 2.000000 -0.000000 -0.000000 1.000000 0.000000 0.490000 0.250000 0.3 0.3 0.3 1.0
0.000000 2.000000 0.100000 -0.000000 1.000000 0.000000 0.250000 0.490000 0.3 0.3 0.3 1.0
0.000000 1.968777 0.100000 -0.707107 0.000000 0.707107 1.000000 0.992194 0.3 0.3 0.3 1.0
0.000000 2.000000 0.100000 -0.707107 0.000000 0.707107 1.000000 1.000000 0.3 0.3 0.3 1.0
-0.100000 2.000000 -0.000000 -0.707107 0.000000 0.707107 0.750000 1.000000 0.3 0.3 0.3 1.0
-0.100000 1.968777 -0.000000 -0.707107 0.000000 0.707107 0.750000 0.992194 0.3 0.3 0.3 1.0
0.000000 0.000000 -0.100000 0.000000 -1.000000 0.000000 0.750000 0.010000 0.3 0.3 0.3 1.0
0.000000 2.000000 -0.100000 -0.000000 1.000000 -0.000000 0.250000 0.010000 0.3 0.3 0.3 1.0
-0.100000 1.968777 -0.000000 -0.707107 0.000000 -0.707107 0.750000 0.992194 0.3 0.3 0.3 1.0
-0.100000 2.000000 -0.000000 -0.707107 0.000000 -0.707107 0.750000 1.000000 0.3 0.3 0.3 1.0
0.000000 2.000000 -0.100000 -0.707107 0.000000 -0.707107 0.500000 1.000000 0.3 0.3 0.3 1.0
0.000000 1.968777 -0.100000 -0.707107 0.000000 -0.707107 0.500000 0.992194 0.3 0.3 0.3 1.0
0.100000 0.000000 0.000000 -0.000000 -1.000000 0.000000 0.510000 0.250000 0.3 0.3 0.3 1.0
0.100000 2.000000 0.000000 0.000000 1.000000 -0.000000 0.010000 0.250000 0.3 0.3 0.3 1.0
0.000000 1.968777 -0.100000 0.707107 0.000000 -0.707107 0.500000 0.992194 0.3 0.3 0.3 1.0
0.000000 2.000000 -0.100000 0.707107 0.000000 -0.707107 0.500000 1.000000 0.3 0.3 0.3 1.0
0.100000 2.000000 0.000000 0.707107 0.000000 -0.707107 0.250000 1.000000 0.3 0.3 0.3 1.0
0.100000 1.968777 0.000000 0.707107 0.000000 -0.707107 0.250000 0.992194 0.3 0.3 0.3 1.0
0.100000 1.968777 0.000000 0.707107 0.000000 0.707107 0.250000 0.992194 0.3 0.3 0.3 1.0
0.100000 2.000000 0.000000 0.707107 0.000000 0.707107 0.250000 1.000000 0.3 0.3 0.3 1.0
0.000000 2.000000 0.100000 0.707107 0.000000 0.707107 0.000000 1.000000 0.3 0.3 0.3 1.0
0.000000 1.968777 0.100000 0.707107 0.000000 0.707107 0.000000 0.992194 0.3 0.3 0.3 1.0
0.246401 1.944415 0.000000 0.161977 0.973410 0.161977 0.250000 0.986104 0.3 0.3 0.3 1.0
0.100000 1.968777 0.000000 0.161977 0.973410 0.161977 0.250000 0.992194 0.3 0.3 0.3 1.0
0.000000 1.968777 0.100000 0.161977 0.973410 0.161977 0.000000 0.992194 0.3 0.3 0.3 1.0
-0.000000 1.944415 0.246401 0.161977 0.973410 0.161977 0.000000 0.986104 0.3 0.3 0.3 1.0
0.000000 1.944415 -0.246401 0.161977 0.973410 -0.161977 0.500000 0.986104 0.3 0.3 0.3 1.0
0.000000 1.968777 -0.100000 0.161977 0.973410 -0.161977 0.500000 0.992194 0.3 0.3 0.3 1.0
0.100000 1.968777 0.000000 0.161977 0.973410 -0.161977 0.250000 0.992194 0.3 0.3 0.3 1.0
0.246401 1.944415 0.000000 0.161977 0.973410 -0.161977 0.250000 0.986104 0.3 0.3 0.3 1.0
-0.246401 1.944415 -0.000000 -0.161977 0.973410 -0.161977 0.750000 0.986104 0.3 0.3 0.3 1.0
-0.100000 1.968777 -0.000000 -0.161977 0.973410 -0.161977 0.750000 0.992194 0.3 0.3 0.3 1.0
0.000000 1.968777 -0.100000 -0.161977 0.973410 -0.161977 0.500000 0.992194 0.3 0.3 0.3 1.0
0.000000 1.944415 -0.246401 -0.161977 0.973410 -0.161977 0.500000 0.986104 0.3 0.3 0.3 1.0
-0.000000 1.944415 0.246401 -0.161977 0.973410 0.161977 1.000000 0.986104 0.3 0.3 0.3 1.0
0.000000 1.968777 0.100000 -0.161977 0.973410 0.161977 1.000000 0.992194 0.3 0.3 0.3 1.0
-0.100000 1.968777 -0.000000 -0.161977 0.973410 0.161977 0.750000 0.992194 0.3 0.3 0.3 1.0
-0.246401 1.944415 -0.000000 -0.161977 0.973410 0.161977 0.750000 0.986104 0.3 0.3 0.3 1.0
0.000000 0.000000 0.100000 -0.707107 0.000000 0.707107 1.000000 0.500000 0.3 0.3 0.3 1.0
0.000000 1.538471 0.100000 -0.707107 0.000000 0.707107 1.000000 0.884618 0.3 0.3 0.3 1.0
-0.100000 1.538471 -0.000000 -0.707107 0.000000 0.707107 0.750000 0.884618 0.3 0.3 0.3 1.0
-0.100000 0.000000 -0.000000 -0.707107 0.000000 0.707107 0.750000 0.500000 0.3 0.3 0.3 1.0
-0.100000 0.000000 -0.000000 -0.707107 0.000000 -0.707107 0.750000 0.500000 0.3 0.3 0.3 1.0
-0.100000 1.538471 -0.000000 -0.707107 0.000000 -0.707107 0.750000 0.884618 0.3 0.3 0.3 1.0
0.000000 1.538471 -0.100000 -0.707107 0.000000 -0.707107 0.500000 0.884618 0.3 0.3 0.3 1.0
0.000000 0.000000 -0.100000 -0.707107 0.000000 -0.707107 0.500000 0.500000 0.3 0.3 0.3 1.0
0.000000 0.000000 -0.100000 0.707107 0.000000 -0.707107 0.500000 0.500000 0.3 0.3 0.3 1.0
0.000000 1.538471 -0.100000 0.707107 0.000000 -0.707107 0.500000 0.884618 0.3 0.3 0.3 1.0
0.100000 1.538471 0.000000 0.707107 0.000000 -0.707107 0.250000 0.884618 0.3 0.3 0.3 1.0
0.100000 0.000000 0.000000 0.707107 0.000000 -0.707107 0.250000 0.500000 0.3 0.3 0.3 1.0
0.100000 0.000000 0.000000 0.707107 0.000000 0.707107 0.250000 0.500000 0.3 0.3 0.3 1.0
0.100000 1.538471 0.000000 0.707107 0.000000 0.707107 0.250000 0.884618 0.3 0.3 0.3 1.0
0.000000 1.538471 0.100000 0.707107 0.000000 0.707107 0.000000 0.884618 0.3 0.3 0.3 1.0
0.000000 0.000000 0.100000 0.707107 0.000000 0.707107 0.000000 0.500000 0.3 0.3 0.3 1.0
0.000000 1.538471 0.100000 -0.555100 -0.619458 0.555100 1.000000 0.884618 0.3 0.3 0.3 1.0
-0.000000 1.594887 0.162957 -0.555100 -0.619458 0.555100 1.000000 0.898722 0.3 0.3 0.3 1.0
-0.162957 1.594887 -0.000000 -0.555100 -0.619458 0.555100 0.750000 0.898722 0.3 0.3 0.3 1.0
-0.100000 1.538471 -0.000000 -0.555100 -0.619458 0.555100 0.750000 0.884618 0.3 0.3 0.3 1.0
-0.100000 1.538471 -0.000000 -0.555100 -0.619458 -0.555100 0.750000 0.884618 0.3 0.3 0.3 1.0
-0.162957 1.594887 -0.000000 -0.555100 -0.619458 -0.555100 0.750000 0.898722 0.3 0.3 0.3 1.0
0.000000 1.594887 -0.162957 -0.555100 -0.619458 -0.555100 0.500000 0.898722 0.3 0.3 0.3 1.0
0.000000 1.538471 -0.100000 -0.555100 -0.619458 -0.555100 0.500000 0.884618 0.3 0.3 0.3 1.0
0.000000 1.538471 -0.100000 0.555100 -0.619458 -0.555100 0.500000 0.884618 0.3 0.3 0.3 1.0
0.000000 1.594887 -0.162957 0.555100 -0.619458 -0.555100 0.500000 0.898722 0.3 0.3 0.3 1.0
0.162957 1.594887 0.000000 0.555100 -0.619458 -0.555100 0.250000 0.898722 0.3 0.3 0.3 1.0
0.100000 1.538471 0.000000 0.555100 -0.619458 -0.555100 0.250000 0.884618 0.3 0.3 0.3 1.0
0.100000 1.538471 0.000000 0.555100 -0.619458 0.555100 0.250000 0.884618 0.3 0.3 0.3 1.0
0.162957 1.594887 0.000000 0.555100 -0.619458 0.555100 0.250000 0.898722 0.3 0.3 0.3 1.0
-0.000000 1.594887 0.162957 0.555100 -0.619458 0.555100 0.000000 0.898722 0.3 0.3 0.3 1.0
0.000000 1.538471 0.100000 0.555100 -0.619458 0.555100 0.000000 0.884618 0.3 0.3 0.3 1.0
-0.000000 1.921993 0.241048 -0.697242 -0.166455 0.697242 1.000000 0.980498 100.0 100.0 20.0 1.0
-0.000000 1.944415 0.246401 -0.697242 -0.166455 0.697242 1.000000 0.986104 0.3 0.3 0.3 1.0
-0.246401 1.944415 -0.000000 -0.697242 -0.166455 0.697242 0.750000 0.986104 0.3 0.3 0.3 1.0
-0.241048 1.921993 -0.000000 -0.697242 -0.166455 0.697242 0.750000 0.980498 100.0 100.0 20.0 1.0
-0.241048 1.921993 -0.000000 -0.697242 -0.166455 -0.697242 0.750000 0.980498 100.0 100.0 20.0 1.0
-0.246401 1.944415 -0.000000 -0.697242 -0.166455 -0.697242 0.750000 0.986104 0.3 0.3 0.3 1.0
0.000000 1.944415 -0.246401 -0.697242 -0.166455 -0.697242 0.500000 0.986104 0.3 0.3 0.3 1.0
0.000000 1.921993 -0.241048 -0.697242 -0.166455 -0.697242 0.500000 0.980498 100.0 100.0 20.0 1.0
0.000000 1.921993 -0.241048 0.697242 -0.166455 -0.697242 0.500000 0.980498 100.0 100.0 20.0 1.0
0.000000 1.944415 -0.246401 0.697242 -0.166455 -0.697242 0.500000 0.986104 0.3 0.3 0.3 1.0
0.246401 1.944415 0.000000 0.697242 -0.166455 -0.697242 0.250000 0.986104 0.3 0.3 0.3 1.0
0.241048 1.921993 0.000000 0.697242 -0.166455 -0.697242 0.250000 0.980498 100.0 100.0 20.0 1.0
0.241048 1.921993 0.000000 0.697242 -0.166455 0.697242 0.250000 0.980498 100.0 100.0 20.0 1.0
0.246401 1.944415 0.000000 0.697242 -0.166455 0.697242 0.250000 0.986104 0.3 0.3 0.3 1.0
-0.000000 1.944415 0.246401 0.697242 -0.166455 0.697242 0.000000 0.986104 0.3 0.3 0.3 1.0
-0.000000 1.921993 0.241048 0.697242 -0.166455 0.697242 0.000000 0.980498 100.0 100.0 20.0 1.0
0.166771 1.610865 0.000000 0.697242 -0.166455 0.697242 0.250000 0.902716 100.0 100.0 20.0 1.0
-0.000000 1.610865 0.166771 0.697242 -0.166455 0.697242 0.000000 0.902716 100.0 100.0 20.0 1.0
0.000000 1.610865 -0.166771 0.697242 -0.166455 -0.697242 0.500000 0.902716 100.0 100.0 20.0 1.0
0.166771 1.610865 0.000000 0.697242 -0.166455 -0.697242 0.250000 0.902716 100.0 100.0 20.0 1.0
-0.166771 1.610865 -0.000000 -0.697242 -0.166455 -0.697242 0.750000 0.902716 100.0 100.0 20.0 1.0
0.000000 1.610865 -0.166771 -0.697242 -0.166455 -0.697242 0.500000 0.902716 100.0 100.0 20.0 1.0
-0.000000 1.610865 0.166771 -0.697242 -0.166455 0.697242 1.000000 0.902716 100.0 100.0 20.0 1.0
-0.166771 1.610865 -0.000000 -0.697242 -0.166455 0.697242 0.750000 0.902716 100.0 100.0 20.0 1.0
-0.000000 1.594887 0.162957 -0.697242 -0.166455 0.697242 1.000000 0.898722 0.3 0.3 0.3 1.0
-0.162957 1.594887 -0.000000 -0.697242 -0.166455 0.697242 0.750000 0.898722 0.3 0.3 0.3 1.0
-0.162957 1.594887 -0.000000 -0.697242 -0.166455 -0.697242 0.750000 0.898722 0.3 0.3 0.3 1.0
0.000000 1.594887 -0.162957 -0.697242 -0.166455 -0.697242 0.500000 0.898722 0.3 0.3 0.3 1.0
0.000000 1.594887 -0.162957 0.697242 -0.166454 -0.697242 0.500000 0.898722 0.3 0.3 0.3 1.0
0.000000 1.610865 -0.166771 0.697242 -0.166454 -0.697242 0.500000 0.902716 100.0 100.0 20.0 1.0
0.166771 1.610865 0.000000 0.697242 -0.166454 -0.697242 0.250000 0.902716 100.0 100.0 20.0 1.0
0.162957 1.594887 0.000000 0.697242 -0.166454 -0.697242 0.250000 0.898722 0.3 0.3 0.3 1.0
0.162957 1.594887 0.000000 0.697242 -0.166455 0.697242 0.250000 0.898722 0.3 0.3 0.3 1.0
-0.000000 1.594887 0.162957 0.697242 -0.166455 0.697242 0.000000 0.898722 0.3 0.3 0.3 1.0
3 0 1 2
3 3 4 5
4 6 7 8 9
3 0 2 10
3 3 11 4
4 12 13 14 15
3 0 10 16
3 3 17 11
4 18 19 20 21
3 0 16 1
3 3 5 17
4 22 23 24 25
4 26 27 28 29
4 30 31 32 33
4 34 35 36 37
4 38 39 40 41
4 42 43 44 45
4 46 47 48 49
4 50 51 52 53
4 54 55 56 57
4 58 59 60 61
4 62 63 64 65
4 66 67 68 69
4 70 71 72 73
4 74 75 76 77
4 78 79 80 81
4 82 83 84 85
4 86 87 88 89
4 90 86 89 91
4 92 82 85 93
4 94 78 81 95
4 96 74 77 97
4 98 96 97 99
4 100 94 95 101
4 102 103 104 105
4 106 90 91 107
