ply
format ascii 1.0
comment Created by Blender 2.82 (sub 7) - www.blender.org, source file: ''
element vertex 144
property float x
property float y
property float z
property float nx
property float ny
property float nz
property float s
property float t
property uchar red
property uchar green
property uchar blue
property uchar alpha
element face 32
property list uchar uint vertex_indices
end_header
-0.800000 0.000000 0.100000 -0.500000 0.000000 0.866026 1.000000 0.500000 110 44 14 255
-0.800000 1.000000 0.100000 -0.500000 0.000000 0.866026 1.000000 1.000000 117 63 46 255
-0.886603 1.000000 0.050000 -0.500000 0.000000 0.866026 0.833333 1.000000 110 44 14 255
-0.886603 0.000000 0.050000 -0.500000 0.000000 0.866026 0.833333 0.500000 110 44 14 255
-0.886603 0.000000 0.050000 -1.000000 0.000000 -0.000001 0.833333 0.500000 110 44 14 255
-0.886603 1.000000 0.050000 -1.000000 0.000000 -0.000001 0.833333 1.000000 110 44 14 255
-0.886603 1.000000 -0.050000 -1.000000 0.000000 -0.000001 0.666667 1.000000 110 44 14 255
-0.886603 0.000000 -0.050000 -1.000000 0.000000 -0.000001 0.666667 0.500000 110 44 14 255
-0.886603 0.000000 -0.050000 -0.500000 0.000000 -0.866025 0.666667 0.500000 110 44 14 255
-0.886603 1.000000 -0.050000 -0.500000 0.000000 -0.866025 0.666667 1.000000 110 44 14 255
-0.800000 1.000000 -0.100000 -0.500000 0.000000 -0.866025 0.500000 1.000000 110 44 14 255
-0.800000 0.000000 -0.100000 -0.500000 0.000000 -0.866025 0.500000 0.500000 110 44 14 255
-0.800000 0.000000 -0.100000 0.500000 0.000000 -0.866026 0.500000 0.500000 110 44 14 255
-0.800000 1.000000 -0.100000 0.500000 0.000000 -0.866026 0.500000 1.000000 110 44 14 255
-0.713397 1.000000 -0.050000 0.500000 0.000000 -0.866026 0.333333 1.000000 110 44 14 255
-0.713397 0.000000 -0.050000 0.500000 0.000000 -0.866026 0.333333 0.500000 110 44 14 255
-0.886603 1.000000 0.050000 0.000000 1.000000 0.000000 0.457846 0.370000 110 44 14 255
-0.800000 1.000000 0.100000 0.000000 1.000000 0.000000 0.250000 0.490000 117 63 46 255
-0.713397 1.000000 0.050000 0.000000 1.000000 0.000000 0.042154 0.370000 112 48 25 255
-0.713397 1.000000 -0.050000 0.000000 1.000000 0.000000 0.042154 0.130000 110 44 14 255
-0.800000 1.000000 -0.100000 0.000000 1.000000 0.000000 0.250000 0.010000 110 44 14 255
-0.886603 1.000000 -0.050000 0.000000 1.000000 0.000000 0.457846 0.130000 110 44 14 255
-0.713397 0.000000 -0.050000 1.000000 0.000000 0.000000 0.333333 0.500000 110 44 14 255
-0.713397 1.000000 -0.050000 1.000000 0.000000 0.000000 0.333333 1.000000 110 44 14 255
-0.713397 1.000000 0.050000 1.000000 0.000000 0.000000 0.166667 1.000000 112 48 25 255
-0.713397 0.000000 0.050000 1.000000 0.000000 0.000000 0.166667 0.500000 110 44 15 255
-0.713397 0.000000 0.050000 0.500000 0.000000 0.866026 0.166667 0.500000 110 44 15 255
-0.713397 1.000000 0.050000 0.500000 0.000000 0.866026 0.166667 1.000000 112 48 25 255
-0.800000 1.000000 0.100000 0.500000 0.000000 0.866026 -0.000000 1.000000 117 63 46 255
-0.800000 0.000000 0.100000 0.500000 0.000000 0.866026 -0.000000 0.500000 110 44 14 255
-0.800000 0.000000 0.100000 0.000000 -1.000000 0.000000 0.750000 0.490000 110 44 14 255
-0.886603 0.000000 0.050000 0.000000 -1.000000 0.000000 0.957846 0.370000 110 44 14 255
-0.886603 0.000000 -0.050000 0.000000 -1.000000 0.000000 0.957846 0.130000 110 44 14 255
-0.800000 0.000000 -0.100000 0.000000 -1.000000 0.000000 0.750000 0.010000 110 44 14 255
-0.713397 0.000000 -0.050000 0.000000 -1.000000 0.000000 0.542154 0.130000 110 44 14 255
-0.713397 0.000000 0.050000 0.000000 -1.000000 0.000000 0.542154 0.370000 110 44 15 255
0.800000 0.000000 0.100000 -0.500000 0.000000 0.866026 1.000000 0.500000 110 44 14 255
0.800000 1.000000 0.100000 -0.500000 0.000000 0.866026 1.000000 1.000000 110 44 14 255
0.713397 1.000000 0.050000 -0.500000 0.000000 0.866026 0.833333 1.000000 110 44 14 255
0.713397 0.000000 0.050000 -0.500000 0.000000 0.866026 0.833333 0.500000 110 44 14 255
0.713397 0.000000 0.050000 -1.000000 0.000000 -0.000001 0.833333 0.500000 110 44 14 255
0.713397 1.000000 0.050000 -1.000000 0.000000 -0.000001 0.833333 1.000000 110 44 14 255
0.713398 1.000000 -0.050000 -1.000000 0.000000 -0.000001 0.666667 1.000000 110 44 14 255
0.713398 0.000000 -0.050000 -1.000000 0.000000 -0.000001 0.666667 0.500000 110 44 14 255
0.713398 0.000000 -0.050000 -0.500000 0.000000 -0.866025 0.666667 0.500000 110 44 14 255
0.713398 1.000000 -0.050000 -0.500000 0.000000 -0.866025 0.666667 1.000000 110 44 14 255
0.800000 1.000000 -0.100000 -0.500000 0.000000 -0.866025 0.500000 1.000000 110 44 14 255
0.800000 0.000000 -0.100000 -0.500000 0.000000 -0.866025 0.500000 0.500000 110 44 14 255
0.800000 0.000000 -0.100000 0.500000 0.000000 -0.866026 0.500000 0.500000 110 44 14 255
0.800000 1.000000 -0.100000 0.500000 0.000000 -0.866026 0.500000 1.000000 110 44 14 255
0.886603 1.000000 -0.050000 0.500000 0.000000 -0.866026 0.333333 1.000000 110 44 14 255
0.886603 0.000000 -0.050000 0.500000 0.000000 -0.866026 0.333333 0.500000 110 44 14 255
0.713397 1.000000 0.050000 0.000000 1.000000 0.000000 0.457846 0.370000 110 44 14 255
0.800000 1.000000 0.100000 0.000000 1.000000 0.000000 0.250000 0.490000 110 44 14 255
0.886603 1.000000 0.050000 0.000000 1.000000 0.000000 0.042154 0.370000 110 44 14 255
0.886603 1.000000 -0.050000 0.000000 1.000000 0.000000 0.042154 0.130000 110 44 14 255
0.800000 1.000000 -0.100000 0.000000 1.000000 0.000000 0.250000 0.010000 110 44 14 255
0.713398 1.000000 -0.050000 0.000000 1.000000 0.000000 0.457846 0.130000 110 44 14 255
0.886603 0.000000 -0.050000 1.000000 0.000000 0.000000 0.333333 0.500000 110 44 14 255
0.886603 1.000000 -0.050000 1.000000 0.000000 0.000000 0.333333 1.000000 110 44 14 255
0.886603 1.000000 0.050000 1.000000 0.000000 0.000000 0.166667 1.000000 110 44 14 255
0.886603 0.000000 0.050000 1.000000 0.000000 0.000000 0.166667 0.500000 110 44 14 255
0.886603 0.000000 0.050000 0.500000 0.000000 0.866026 0.166667 0.500000 110 44 14 255
0.886603 1.000000 0.050000 0.500000 0.000000 0.866026 0.166667 1.000000 110 44 14 255
0.800000 1.000000 0.100000 0.500000 0.000000 0.866026 -0.000000 1.000000 110 44 14 255
0.800000 0.000000 0.100000 0.500000 0.000000 0.866026 -0.000000 0.500000 110 44 14 255
0.800000 0.000000 0.100000 0.000000 -1.000000 0.000000 0.750000 0.490000 110 44 14 255
0.713397 0.000000 0.050000 0.000000 -1.000000 0.000000 0.957846 0.370000 110 44 14 255
0.713398 0.000000 -0.050000 0.000000 -1.000000 0.000000 0.957846 0.130000 110 44 14 255
0.800000 0.000000 -0.100000 0.000000 -1.000000 0.000000 0.750000 0.010000 110 44 14 255
0.886603 0.000000 -0.050000 0.000000 -1.000000 0.000000 0.542154 0.130000 110 44 14 255
0.886603 0.000000 0.050000 0.000000 -1.000000 0.000000 0.542154 0.370000 110 44 14 255
-0.989778 0.743593 0.100000 -0.000000 0.500000 0.866025 1.000000 0.500000 117 61 46 255
0.989778 0.743593 0.100000 -0.000000 0.500000 0.866025 1.000000 1.000000 110 44 14 255
0.989778 0.830195 0.050000 -0.000000 0.500000 0.866025 0.833333 1.000000 110 45 16 255
-0.989778 0.830195 0.050000 -0.000000 0.500000 0.866025 0.833333 0.500000 110 44 14 255
-0.989778 0.830195 0.050000 -0.000000 1.000000 0.000000 0.833333 0.500000 110 44 14 255
0.989778 0.830195 0.050000 -0.000000 1.000000 0.000000 0.833333 1.000000 110 45 16 255
0.989778 0.830195 -0.050000 -0.000000 1.000000 0.000000 0.666667 1.000000 110 58 43 255
-0.989778 0.830195 -0.050000 -0.000000 1.000000 0.000000 0.666667 0.500000 110 44 14 255
-0.989778 0.830195 -0.050000 -0.000000 0.500000 -0.866026 0.666667 0.500000 110 44 14 255
0.989778 0.830195 -0.050000 -0.000000 0.500000 -0.866026 0.666667 1.000000 110 58 43 255
0.989778 0.743593 -0.100000 -0.000000 0.500000 -0.866026 0.500000 1.000000 110 45 16 255
-0.989778 0.743593 -0.100000 -0.000000 0.500000 -0.866026 0.500000 0.500000 110 44 14 255
-0.989778 0.743593 -0.100000 0.000000 -0.500000 -0.866025 0.500000 0.500000 110 44 14 255
0.989778 0.743593 -0.100000 0.000000 -0.500000 -0.866025 0.500000 1.000000 110 45 16 255
0.989778 0.656990 -0.050000 0.000000 -0.500000 -0.866025 0.333333 1.000000 110 44 14 255
-0.989778 0.656990 -0.050000 0.000000 -0.500000 -0.866025 0.333333 0.500000 112 48 24 255
0.989778 0.830195 0.050000 1.000000 -0.000000 0.000000 0.457846 0.370000 110 45 16 255
0.989778 0.743593 0.100000 1.000000 -0.000000 0.000000 0.250000 0.490000 110 44 14 255
0.989778 0.656990 0.050000 1.000000 -0.000000 0.000000 0.042154 0.370000 110 44 14 255
0.989778 0.656990 -0.050000 1.000000 -0.000000 0.000000 0.042154 0.130000 110 44 14 255
0.989778 0.743593 -0.100000 1.000000 -0.000000 0.000000 0.250000 0.010000 110 45 16 255
0.989778 0.830195 -0.050000 1.000000 -0.000000 0.000000 0.457846 0.130000 110 58 43 255
-0.989778 0.656990 -0.050000 0.000000 -1.000000 0.000000 0.333333 0.500000 112 48 24 255
0.989778 0.656990 -0.050000 0.000000 -1.000000 0.000000 0.333333 1.000000 110 44 14 255
0.989778 0.656990 0.050000 0.000000 -1.000000 0.000000 0.166667 1.000000 110 44 14 255
-0.989778 0.656990 0.050000 0.000000 -1.000000 0.000000 0.166667 0.500000 110 44 15 255
-0.989778 0.656990 0.050000 0.000000 -0.500000 0.866025 0.166667 0.500000 110 44 15 255
0.989778 0.656990 0.050000 0.000000 -0.500000 0.866025 0.166667 1.000000 110 44 14 255
0.989778 0.743593 0.100000 0.000000 -0.500000 0.866025 -0.000000 1.000000 110 44 14 255
-0.989778 0.743593 0.100000 0.000000 -0.500000 0.866025 -0.000000 0.500000 117 61 46 255
-0.989778 0.743593 0.100000 -1.000000 -0.000000 0.000000 0.750000 0.490000 117 61 46 255
-0.989778 0.830195 0.050000 -1.000000 -0.000000 0.000000 0.957846 0.370000 110 44 14 255
-0.989778 0.830195 -0.050000 -1.000000 -0.000000 0.000000 0.957846 0.130000 110 44 14 255
-0.989778 0.743593 -0.100000 -1.000000 -0.000000 0.000000 0.750000 0.010000 110 44 14 255
-0.989778 0.656990 -0.050000 -1.000000 -0.000000 0.000000 0.542154 0.130000 112 48 24 255
-0.989778 0.656990 0.050000 -1.000000 -0.000000 0.000000 0.542154 0.370000 110 44 15 255
-0.989778 0.286284 0.100000 -0.000000 0.500000 0.866025 1.000000 0.500000 110 44 14 255
0.989778 0.286284 0.100000 -0.000000 0.500000 0.866025 1.000000 1.000000 110 44 14 255
0.989778 0.372887 0.050000 -0.000000 0.500000 0.866025 0.833333 1.000000 110 44 14 255
-0.989778 0.372887 0.050000 -0.000000 0.500000 0.866025 0.833333 0.500000 110 44 14 255
-0.989778 0.372887 0.050000 -0.000000 1.000000 -0.000000 0.833333 0.500000 110 44 14 255
0.989778 0.372887 0.050000 -0.000000 1.000000 -0.000000 0.833333 1.000000 110 44 14 255
0.989778 0.372887 -0.050000 -0.000000 1.000000 -0.000000 0.666667 1.000000 110 44 14 255
-0.989778 0.372887 -0.050000 -0.000000 1.000000 -0.000000 0.666667 0.500000 110 44 15 255
-0.989778 0.372887 -0.050000 -0.000000 0.500000 -0.866025 0.666667 0.500000 110 44 15 255
0.989778 0.372887 -0.050000 -0.000000 0.500000 -0.866025 0.666667 1.000000 110 44 14 255
0.989778 0.286284 -0.100000 -0.000000 0.500000 -0.866025 0.500000 1.000000 110 44 14 255
-0.989778 0.286284 -0.100000 -0.000000 0.500000 -0.866025 0.500000 0.500000 110 44 14 255
-0.989778 0.286284 -0.100000 0.000000 -0.500000 -0.866025 0.500000 0.500000 110 44 14 255
0.989778 0.286284 -0.100000 0.000000 -0.500000 -0.866025 0.500000 1.000000 110 44 14 255
0.989778 0.199681 -0.050000 0.000000 -0.500000 -0.866025 0.333333 1.000000 110 44 14 255
-0.989778 0.199681 -0.050000 0.000000 -0.500000 -0.866025 0.333333 0.500000 110 44 14 255
0.989778 0.372887 0.050000 1.000000 -0.000000 0.000000 0.457846 0.370000 110 44 14 255
0.989778 0.286284 0.100000 1.000000 -0.000000 0.000000 0.250000 0.490000 110 44 14 255
0.989778 0.199681 0.050000 1.000000 -0.000000 0.000000 0.042154 0.370000 110 44 14 255
0.989778 0.199681 -0.050000 1.000000 -0.000000 0.000000 0.042154 0.130000 110 44 14 255
0.989778 0.286284 -0.100000 1.000000 -0.000000 0.000000 0.250000 0.010000 110 44 14 255
0.989778 0.372887 -0.050000 1.000000 -0.000000 0.000000 0.457846 0.130000 110 44 14 255
-0.989778 0.199681 -0.050000 0.000000 -1.000000 0.000000 0.333333 0.500000 110 44 14 255
0.989778 0.199681 -0.050000 0.000000 -1.000000 0.000000 0.333333 1.000000 110 44 14 255
0.989778 0.199681 0.050000 0.000000 -1.000000 0.000000 0.166667 1.000000 110 44 14 255
-0.989778 0.199681 0.050000 0.000000 -1.000000 0.000000 0.166667 0.500000 110 44 14 255
-0.989778 0.199681 0.050000 0.000000 -0.500000 0.866025 0.166667 0.500000 110 44 14 255
0.989778 0.199681 0.050000 0.000000 -0.500000 0.866025 0.166667 1.000000 110 44 14 255
0.989778 0.286284 0.100000 0.000000 -0.500000 0.866025 -0.000000 1.000000 110 44 14 255
-0.989778 0.286284 0.100000 0.000000 -0.500000 0.866025 -0.000000 0.500000 110 44 14 255
-0.989778 0.286284 0.100000 -1.000000 -0.000000 0.000000 0.750000 0.490000 110 44 14 255
-0.989778 0.372887 0.050000 -1.000000 -0.000000 0.000000 0.957846 0.370000 110 44 14 255
-0.989778 0.372887 -0.050000 -1.000000 -0.000000 0.000000 0.957846 0.130000 110 44 15 255
-0.989778 0.286284 -0.100000 -1.000000 -0.000000 0.000000 0.750000 0.010000 110 44 14 255
-0.989778 0.199681 -0.050000 -1.000000 -0.000000 0.000000 0.542154 0.130000 110 44 14 255
-0.989778 0.199681 0.050000 -1.000000 -0.000000 0.000000 0.542154 0.370000 110 44 14 255
4 0 1 2 3
4 4 5 6 7
4 8 9 10 11
4 12 13 14 15
6 16 17 18 19 20 21
4 22 23 24 25
4 26 27 28 29
6 30 31 32 33 34 35
4 36 37 38 39
4 40 41 42 43
4 44 45 46 47
4 48 49 50 51
6 52 53 54 55 56 57
4 58 59 60 61
4 62 63 64 65
6 66 67 68 69 70 71
4 72 73 74 75
4 76 77 78 79
4 80 81 82 83
4 84 85 86 87
6 88 89 90 91 92 93
4 94 95 96 97
4 98 99 100 101
6 102 103 104 105 106 107
4 108 109 110 111
4 112 113 114 115
4 116 117 118 119
4 120 121 122 123
6 124 125 126 127 128 129
4 130 131 132 133
4 134 135 136 137
6 138 139 140 141 142 143
